#!OML:ASF I:\Actors\actors\Patient Classification 1\Patient 1\Session 1\Subject1.ASF
:FULLY-SPECIFIED
:DEGREES
700
root 0.719304 17.6285 9.85774 3.19066 12.996 -8.86451
lowerback -5.81972 6.28408 4.84008
upperback -13.236 8.26847 -4.90473
thorax -9.53291 3.43708 -8.10043
lowerneck -12.1722 0.933029 3.59273
upperneck 22.508 4.16069 -14.1077
head 9.47672 0.817368 -5.04192
rclavicle 8.82604e-014 -9.54166e-015
rhumerus -52.0507 32.6531 -121.417
rradius 111.774
rwrist 2.31
rhand 11.9313 -19.1799
rfingers 7.12502
rthumb 36.9557 -405.256
lclavicle 8.82604e-014 -9.54166e-015
lhumerus 118.531 199.591 280.289
lradius 118.086
lwrist 18.7999
lhand -2.55265 -21.1754
lfingers 7.12502
lthumb 23.1432 7.45448
rfemur 3.54793 13.7687 29.8191
rtibia 9.57019
rfoot -20.3913 -24.1829
rtoes 1.63822
lfemur 3.43869 -29.5017 -8.43232
ltibia 2.46995
lfoot -9.9177 25.6727
ltoes -18.1811
701
root 0.682557 17.622 9.81044 2.98985 13.9172 -9.1704
lowerback -5.35037 6.50012 5.13386
upperback -12.9117 8.56765 -5.14997
thorax -9.30642 3.56699 -8.54552
lowerneck -12.1429 0.612624 2.92965
upperneck 21.2966 3.51485 -13.4175
head 8.96271 0.567218 -4.70198
rclavicle -1.145e-013 0
rhumerus -51.386 32.2514 -120.672
rradius 111.766
rwrist -1.34491
rhand 12.0155 -19.7
rfingers 7.12502
rthumb 37.0354 -405.755
lclavicle -1.145e-013 0
lhumerus 119.95 200.324 280.307
lradius 116.993
lwrist 17.52
lhand -2.24331 -20.7038
lfingers 7.12502
lthumb 23.44 7.88844
rfemur 3.45749 13.5933 30.3528
rtibia 9.6853
rfoot -20.6981 -24.7404
rtoes 2.19719
lfemur 2.72724 -29.4396 -7.62586
ltibia 2.78886
lfoot -9.71759 24.8015
ltoes -19.1036
702
root 0.641237 17.5938 9.74488 2.45654 15.0155 -9.77873
lowerback -4.52575 6.67545 5.62504
upperback -12.4912 8.8453 -5.20621
thorax -9.17972 3.67392 -8.9361
lowerneck -11.9974 0.217898 2.29669
upperneck 20.1626 2.79348 -12.7644
head 8.46631 0.28178 -4.39907
rclavicle -1.98785e-014 -4.13472e-014
rhumerus -50.9317 31.6917 -120.148
rradius 111.465
rwrist -6.86423
rhand 11.1237 -20.8615
rfingers 7.12502
rthumb 36.1914 -407.131
lclavicle -1.98785e-014 -4.13472e-014
lhumerus 120.845 201.324 281.015
lradius 115.936
lwrist 16.8433
lhand -2.34314 -20.4132
lfingers 7.12502
lthumb 23.3442 8.19125
rfemur 3.48299 13.083 31.2185
rtibia 9.93214
rfoot -20.9766 -25.2211
rtoes 2.45451
lfemur 2.05217 -29.0244 -6.44649
ltibia 3.17721
lfoot -9.60862 23.3729
ltoes -20.2111
703
root 0.595978 17.5486 9.66455 1.92154 16.2598 -10.2713
lowerback -3.62864 6.75072 5.80183
upperback -11.9866 8.9951 -5.13887
thorax -9.08106 3.75173 -9.02749
lowerneck -11.9406 -0.194382 1.94588
upperneck 19.1266 2.08147 -12.41
head 8.04213 -0.0139087 -4.25597
rclavicle 2.06736e-014 -1.59028e-014
rhumerus -50.4853 31.0616 -119.495
rradius 110.93
rwrist -10.3122
rhand 10.3161 -21.492
rfingers 7.12502
rthumb 35.4261 -407.947
lclavicle 2.06736e-014 -1.59028e-014
lhumerus 121.671 202.321 282.137
lradius 114.691
lwrist 16.6896
lhand -2.86613 -20.2897
lfingers 7.12502
lthumb 22.8424 8.37757
rfemur 3.31341 12.3141 31.8586
rtibia 10.3955
rfoot -21.3452 -25.6404
rtoes 2.73204
lfemur 1.18496 -28.7165 -5.3624
ltibia 3.60944
lfoot -9.39808 21.8791
ltoes -21.7468
704
root 0.546303 17.4979 9.58305 1.87349 17.5023 -10.079
lowerback -3.03412 6.53789 5.04732
upperback -11.4005 8.71986 -4.90509
thorax -8.93999 3.70921 -8.38209
lowerneck -12.3341 -0.388367 1.48638
upperneck 18.1099 1.75806 -12.2519
head 7.75173 -0.166411 -4.12973
rclavicle -2.38542e-014 -1.59028e-014
rhumerus -50.3022 31.3645 -119.004
rradius 110.025
rwrist -10.6979
rhand 10.0902 -21.678
rfingers 7.12502
rthumb 35.2119 -408.184
lclavicle -2.38542e-014 -1.59028e-014
lhumerus 122.948 202.367 283.179
lradius 113.151
lwrist 16.4256
lhand -3.44633 -19.7473
lfingers 7.12502
lthumb 22.2856 8.98764
rfemur 2.57614 11.595 31.5849
rtibia 11.1686
rfoot -21.9786 -25.9967
rtoes 3.68989
lfemur -0.178426 -28.7603 -4.91363
ltibia 4.22113
lfoot -9.26072 20.7408
ltoes -22.9195
705
root 0.502154 17.447 9.50202 1.75911 18.4723 -9.59021
lowerback -2.06042 6.31843 4.1835
upperback -10.8479 8.43503 -4.71506
thorax -9.06742 3.64581 -7.78188
lowerneck -12.646 -0.536278 1.11964
upperneck 17.041 1.50253 -12.2116
head 7.44002 -0.283974 -4.05238
rclavicle -1.08139e-013 7.95139e-014
rhumerus -50.3234 31.8737 -118.742
rradius 108.879
rwrist -9.18323
rhand 10.5348 -21.5948
rfingers 7.12502
rthumb 35.6334 -408.001
lclavicle -1.08139e-013 7.95139e-014
lhumerus 124.129 202.095 284.04
lradius 111.722
lwrist 15.6426
lhand -3.75821 -18.694
lfingers 7.12502
lthumb 21.9861 10.0765
rfemur 1.96 10.8401 30.9312
rtibia 12.0382
rfoot -22.4425 -26.1614
rtoes 3.81646
lfemur -1.00287 -29.1984 -5.13467
ltibia 4.66343
lfoot -9.25931 20.1755
ltoes -23.09
706
root 0.458945 17.4077 9.43902 1.07427 19.5427 -9.45131
lowerback -0.768972 6.15896 3.7457
upperback -10.2465 8.23963 -4.58134
thorax -9.25159 3.58271 -7.51104
lowerneck -12.6474 -0.797762 1.02179
upperneck 16.0011 1.01767 -12.0955
head 7.06615 -0.477354 -4.01542
rclavicle -7.43455e-014 -1.27222e-014
rhumerus -50.3712 32.6889 -118.604
rradius 107.941
rwrist -8.6228
rhand 10.4792 -22.1134
rfingers 7.12502
rthumb 35.5807 -408.532
lclavicle -7.43455e-014 -1.27222e-014
lhumerus 124.84 202.176 284.774
lradius 110.707
lwrist 14.2271
lhand -4.20793 -17.9547
lfingers 7.12502
lthumb 21.5543 10.8659
rfemur 2.19776 10.1241 30.8485
rtibia 12.5156
rfoot -22.86 -26.5513
rtoes 3.72295
lfemur -0.88989 -29.7931 -5.33392
ltibia 4.66185
lfoot -9.15443 19.5803
ltoes -23.366
707
root 0.425959 17.381 9.38303 0.310528 20.4637 -9.77753
lowerback 0.396923 6.03163 3.95023
upperback -9.70004 8.11387 -4.43998
thorax -9.33712 3.50668 -7.56981
lowerneck -12.8281 -1.05386 1.10137
upperneck 15.1437 0.531716 -11.9754
head 6.78591 -0.673798 -4.01462
rclavicle -5.1684e-015 -8.26944e-014
rhumerus -49.9278 31.7821 -118.715
rradius 107.228
rwrist -8.84657
rhand 11.5567 -23.883
rfingers 7.12502
rthumb 36.6013 -410.05
lclavicle -5.1684e-015 -8.26944e-014
lhumerus 125.409 202.386 285.123
lradius 110.095
lwrist 13.0711
lhand -4.78468 -17.6547
lfingers 7.12502
lthumb 21.0003 11.2283
rfemur 2.41415 9.22182 31.1546
rtibia 12.9354
rfoot -23.0875 -26.6
rtoes 3.62984
lfemur -0.75472 -30.2036 -5.06428
ltibia 4.6092
lfoot -8.99401 18.9885
ltoes -24.0237
708
root 0.391687 17.3672 9.33431 -0.412103 21.3788 -9.93575
lowerback 1.69854 5.84007 4.0484
upperback -9.29865 7.89679 -4.41148
thorax -9.68284 3.3721 -7.72122
lowerneck -13.0787 -1.30974 1.29102
upperneck 14.572 0.0857961 -11.9972
head 6.61355 -0.869301 -4.08373
rclavicle 3.33958e-014 -5.08889e-014
rhumerus -50.9433 32.3334 -119.569
rradius 106.773
rwrist -11.5451
rhand 7.78119 -22.354
rfingers 7.12502
rthumb 33.019 -409.35
lclavicle 3.33958e-014 -5.08889e-014
lhumerus 125.835 202.616 285.026
lradius 109.623
lwrist 12.9496
lhand -4.97666 -18.1447
lfingers 7.12502
lthumb 20.8158 10.7587
rfemur 2.72661 8.43123 31.3222
rtibia 13.2433
rfoot -23.2808 -26.7053
rtoes 3.86494
lfemur -0.65858 -30.5175 -4.99686
ltibia 4.64828
lfoot -8.82782 18.3142
ltoes -24.6151
709
root 0.352806 17.3676 9.29607 -0.732249 22.2461 -9.75664
lowerback 2.7154 5.68176 3.82886
upperback -9.16581 7.68453 -4.53551
thorax -10.1839 3.24797 -7.8498
lowerneck -13.1542 -1.60461 1.2686
upperneck 14.4849 -0.335747 -11.9234
head 6.56776 -1.06734 -4.09279
rclavicle -1.63003e-014 1.90833e-014
rhumerus -52.3845 31.3337 -120.81
rradius 107.517
rwrist -12.0564
rhand 6.06079 -23.7357
rfingers 7.12502
rthumb 31.3812 -411.064
lclavicle -1.63003e-014 1.90833e-014
lhumerus 125.943 202.748 284.82
lradius 109.727
lwrist 13.238
lhand -4.60225 -17.5065
lfingers 7.12502
lthumb 21.1755 11.357
rfemur 2.84721 8.09475 31.2204
rtibia 13.3635
rfoot -23.5406 -27.1482
rtoes 4.69958
lfemur -0.897924 -30.8635 -5.09562
ltibia 4.73239
lfoot -8.60248 17.7474
ltoes -24.873
710
root 0.324825 17.3894 9.27234 -0.468686 22.797 -9.71286
lowerback 2.8102 5.64646 3.86717
upperback -9.28979 7.63454 -4.70276
thorax -10.3638 3.20064 -8.0774
lowerneck -13.2762 -1.90734 1.20743
upperneck 14.9326 -0.679366 -11.976
head 6.7071 -1.25791 -4.14603
rclavicle 4.77083e-014 9.54166e-015
rhumerus -53.6471 29.5946 -121.702
rradius 108.584
rwrist -10.9166
rhand 6.33933 -23.9668
rfingers 7.12502
rthumb 31.6466 -411.243
lclavicle 4.77083e-014 9.54166e-015
lhumerus 125.891 202.675 284.46
lradius 110.09
lwrist 14.2469
lhand -3.90853 -18.0043
lfingers 7.12502
lthumb 21.8418 10.7831
rfemur 2.49958 8.20938 31.2289
rtibia 13.2006
rfoot -23.5995 -27.5684
rtoes 5.70783
lfemur -1.57006 -31.2643 -4.75894
ltibia 4.59596
lfoot -8.19462 17.6897
ltoes -25.0853
711
root 0.3118 17.4298 9.25749 0.188197 23.0133 -9.77338
lowerback 2.38933 5.71974 4.15233
upperback -9.65388 7.74198 -4.89725
thorax -10.4497 3.21317 -8.43819
lowerneck -13.5657 -2.21985 1.24867
upperneck 15.8345 -0.94408 -12.3596
head 7.02644 -1.45097 -4.33891
rclavicle 9.46215e-014 6.36111e-015
rhumerus -54.8145 28.1754 -122.441
rradius 109.915
rwrist -9.53311
rhand 6.82738 -24.1245
rfingers 7.12502
rthumb 32.1114 -411.308
lclavicle 9.46215e-014 6.36111e-015
lhumerus 125.515 202.533 284.026
lradius 110.928
lwrist 15.6364
lhand -2.80438 -18.341
lfingers 7.12502
lthumb 22.9017 10.319
rfemur 1.92847 8.71984 31.302
rtibia 12.7202
rfoot -23.4525 -27.8513
rtoes 6.77492
lfemur -2.47864 -31.5443 -4.14415
ltibia 4.27709
lfoot -7.61351 18.0023
ltoes -25.4523
712
root 0.324408 17.4782 9.27111 0.881146 23.5095 -10.2564
lowerback 1.30326 5.72025 4.94722
upperback -10.0995 7.77815 -4.98004
thorax -10.1975 3.1752 -8.8687
lowerneck -13.782 -2.48828 1.25542
upperneck 16.8284 -1.10151 -12.8659
head 7.37281 -1.60681 -4.5643
rclavicle 1.27222e-014 -3.18055e-015
rhumerus -55.8119 26.8723 -123.056
rradius 111.126
rwrist -8.03826
rhand 7.40393 -23.8496
rfingers 7.12502
rthumb 32.6601 -410.921
lclavicle 1.27222e-014 -3.18055e-015
lhumerus 124.802 202.358 283.69
lradius 112.046
lwrist 16.6793
lhand -1.68094 -18.5847
lfingers 7.12502
lthumb 23.9794 9.93766
rfemur 1.55382 8.74083 31.74
rtibia 11.6788
rfoot -23.1383 -27.9698
rtoes 7.36168
lfemur -3.56202 -31.5708 -3.10078
ltibia 3.93142
lfoot -7.13599 17.9002
ltoes -25.5911
